<svg id="Layer_1" height="512" viewBox="0 0 24 24" width="512" xmlns="http://www.w3.org/2000/svg" data-name="Layer 1"><path d="m9.12109 2.51465a.49976.49976 0 0 0 -.60595.36426l-1.40528 5.62109h-3.1084a2.50023 2.50023 0 0 0 -2.37158 3.291l2.66651 8a2.49637 2.49637 0 0 0 2.37161 1.709h10.664a2.49529 2.49529 0 0 0 2.37109-1.709l2.667-8a2.50023 2.50023 0 0 0 -2.37155-3.291h-3.1084l-1.40528-5.62109a.49975.49975 0 1 0 -.96972.24218l1.34472 5.37891h-7.71972l1.34472-5.37891a.5.5 0 0 0 -.36377-.60644zm6.98877 6.98535.40528 1.62109a.4993.4993 0 0 0 .48437.37891.52017.52017 0 0 0 .12158-.01465.5.5 0 0 0 .36377-.60644l-.34472-1.37891h2.8584a1.50064 1.50064 0 0 1 1.42334 1.97461l-2.66749 8a1.49706 1.49706 0 0 1 -1.42239 1.02539h-10.664a1.49814 1.49814 0 0 1 -1.42285-1.02539l-2.667-8a1.50064 1.50064 0 0 1 1.42331-1.97461h2.8584l-.34472 1.37891a.5.5 0 0 0 .36377.60644.52017.52017 0 0 0 .12158.01465.4993.4993 0 0 0 .48437-.37891l.40528-1.62109zm-8.10986 3a.49971.49971 0 0 1 .5.5v4a.5.5 0 0 1 -1 0v-4a.49971.49971 0 0 1 .5-.5zm3.5 4.5v-4a.5.5 0 0 1 1 0v4a.5.5 0 0 1 -1 0zm4 0v-4a.5.5 0 0 1 1 0v4a.5.5 0 0 1 -1 0z"/></svg>