<svg id="Layer_1" height="512" viewBox="0 0 32 32" width="512" xmlns="http://www.w3.org/2000/svg" data-name="Layer 1"><path d="m28.414 11h-9.414v-7.414l-1.586-1.586h-2.828l-1.586 1.586v7.414h-9.414l-1.586 1.585v3.829l1.586 1.586h.5l.951 10.451 1.548 1.549h18.829l1.549-1.549.95-10.451h.5l1.587-1.585v-3.83zm-13.414-6.586.414-.414h1.172l.414.414v8.172l-.414.414h-1.172l-.414-.414zm10.038 23.135-.452.451h-17.172l-.451-.451-.863-9.549h19.8zm2.962-11.964-.415.415h-23.17l-.415-.415v-2.17l.415-.415h8.585v.414l1.586 1.586h2.828l1.586-1.586v-.414h8.585l.415.415v2.171z"/><path d="m15 20h2v6h-2z"/><path d="m20 20h2v6h-2z"/><path d="m10 20h2v6h-2z"/></svg>