<svg width="16" height="16" viewBox="0 0 16 16" xmlns="http://www.w3.org/2000/svg">
<line x1="0.75" y1="11.25" x2="15.25" y2="11.25" stroke-width="1.5" stroke-linecap="round"/>
<mask id="path-2-inside-1_437_12251" >
<path d="M15 9C15 8.08075 14.8189 7.1705 14.4672 6.32122C14.1154 5.47194 13.5998 4.70026 12.9497 4.05025C12.2997 3.40024 11.5281 2.88463 10.6788 2.53284C9.8295 2.18106 8.91925 2 8 2C7.08075 2 6.17049 2.18106 5.32122 2.53284C4.47194 2.88463 3.70026 3.40024 3.05025 4.05025C2.40024 4.70026 1.88463 5.47194 1.53284 6.32122C1.18106 7.1705 1 8.08075 1 9L8 9H15Z"/>
</mask>
<path d="M15 9C15 8.08075 14.8189 7.1705 14.4672 6.32122C14.1154 5.47194 13.5998 4.70026 12.9497 4.05025C12.2997 3.40024 11.5281 2.88463 10.6788 2.53284C9.8295 2.18106 8.91925 2 8 2C7.08075 2 6.17049 2.18106 5.32122 2.53284C4.47194 2.88463 3.70026 3.40024 3.05025 4.05025C2.40024 4.70026 1.88463 5.47194 1.53284 6.32122C1.18106 7.1705 1 8.08075 1 9L8 9H15Z" stroke-width="3" mask="url(#path-2-inside-1_437_12251)"/>
<path d="M8 3L8 1" stroke-width="1.5" stroke-linecap="round"/>
</svg>
