<svg width="16" height="16" viewBox="0 0 16 16" xmlns="http://www.w3.org/2000/svg">
<g clip-path="url(#clip0_437_12255)">
<path d="M14 10.1622V14.0055C13.9998 14.181 13.93 14.3492 13.8059 14.4732C13.6818 14.5972 13.5135 14.6668 13.338 14.6668H2.66202C2.57447 14.6662 2.4879 14.6484 2.40725 14.6143C2.3266 14.5802 2.25345 14.5306 2.19197 14.4683C2.1305 14.4059 2.08191 14.3321 2.04897 14.251C2.01604 14.1699 1.9994 14.083 2.00002 13.9955V6.00016H6.00002C6.17683 6.00016 6.3464 5.92992 6.47142 5.8049C6.59645 5.67988 6.66668 5.51031 6.66668 5.3335V1.3335H13.3347C13.702 1.3335 14 1.63683 14 1.99483V4.50483L8.00068 10.5048L7.99668 13.3302L10.8273 13.3342L14 10.1622ZM14.5187 5.87216L15.4613 6.81483L10.276 12.0002L9.33202 11.9988L9.33335 11.0575L14.5187 5.87216ZM2.00002 4.66683L5.33335 1.3355V4.66683H2.00002Z" />
</g>
<defs>
<clipPath id="clip0_437_12255">
<rect width="16" height="16" />
</clipPath>
</defs>
</svg>
