<svg viewBox="0 0 27 25" fill="none" xmlns="http://www.w3.org/2000/svg">
<path fill-rule="evenodd" clip-rule="evenodd" d="M23.5229 14.9067C22.7013 17.4447 20.9663 19.6336 19.5 21.3697C17.6994 23.5017 14.8378 24.0017 12 24.0017C8.95666 24.0017 5.62505 23.5017 4.06253 21.0017C3.77769 20.5459 3.46169 20.0764 3.13537 19.5915C1.67161 17.4164 0 14.9324 0 12.0017C0 8.69546 1 4.75168 3.5 3.50168C4.30685 3.09825 5.0543 2.65866 5.78054 2.23154C7.64319 1.13608 9.36638 0.122628 11.5946 0.0117188C11.2144 0.759326 11 1.60547 11 2.50168C11 5.53924 13.4624 8.00168 16.5 8.00168C16.7442 8.00168 16.9847 7.98576 17.2205 7.95491C17.077 8.44557 17 8.96463 17 9.50168C17 12.5392 19.4624 15.0017 22.5 15.0017C22.8496 15.0017 23.1915 14.9691 23.5229 14.9067Z" fill="#FFC100"/>
<circle cx="5.5" cy="8.50168" r="1.5" fill="#4D4D4D"/>
<circle cx="15.5" cy="17.5017" r="1.5" fill="#4D4D4D"/>
<circle cx="14.5" cy="2.50168" r="1.5" fill="#FFC100"/>
<circle cx="11" cy="13.0017" r="1" fill="#4D4D4D"/>
<circle cx="8" cy="19.0017" r="1" fill="#4D4D4D"/>
<circle cx="25" cy="10.0017" r="2" fill="#FFC100"/>
</svg>
