<svg width="15" height="15" viewBox="0 0 15 15" fill="none" xmlns="http://www.w3.org/2000/svg">
<path d="M9.66683 0.666504C10.035 0.666504 10.3335 0.964981 10.3335 1.33317V1.99917L13.6668 1.99984V5.99984L12.3202 5.99917L14.1647 11.0633C14.2738 11.3545 14.3335 11.6699 14.3335 11.9992C14.3335 13.4719 13.1396 14.6658 11.6668 14.6658C10.4247 14.6658 9.38092 13.8166 9.08448 12.667L6.24935 12.667C5.95315 13.8169 4.90921 14.6665 3.66683 14.6665C2.37025 14.6665 1.2898 13.7412 1.04985 12.5148C0.62388 12.2925 0.333496 11.8468 0.333496 11.3332V7.99984H6.3335C6.3335 8.34173 6.59086 8.62351 6.92242 8.66202L7.00016 8.6665H8.3335C8.67539 8.6665 8.95717 8.40914 8.99568 8.07758L9.00016 7.99984V1.99984H7.00016V0.666504H9.66683ZM3.66683 10.6665C2.93045 10.6665 2.3335 11.2635 2.3335 11.9998C2.3335 12.7362 2.93045 13.3332 3.66683 13.3332C4.40321 13.3332 5.00016 12.7362 5.00016 11.9998C5.00016 11.2635 4.40321 10.6665 3.66683 10.6665ZM11.6668 10.6665C10.9305 10.6665 10.3335 11.2635 10.3335 11.9998C10.3335 12.7362 10.9305 13.3332 11.6668 13.3332C12.4032 13.3332 13.0002 12.7362 13.0002 11.9998C13.0002 11.2635 12.4032 10.6665 11.6668 10.6665ZM5.66683 1.99984C6.03502 1.99984 6.3335 2.29831 6.3335 2.6665V7.33317H0.333496V2.6665C0.333496 2.29831 0.631973 1.99984 1.00016 1.99984H5.66683ZM12.3335 3.33317H10.3335V4.6665H12.3335V3.33317ZM5.00016 3.33317H1.66683V3.99984H5.00016V3.33317Z" fill="black"/>
</svg>
