<svg width="16" height="16" viewBox="0 0 16 16" xmlns="http://www.w3.org/2000/svg">
<g clip-path="url(#clip0_810_4949)">
<g clip-path="url(#clip1_810_4949)">
<g clip-path="url(#clip2_810_4949)">
<path d="M10.6668 0.666504C11.035 0.666504 11.3335 0.964981 11.3335 1.33317V1.99917L14.6668 1.99984V5.99984L13.3202 5.99917L15.1647 11.0633C15.2738 11.3545 15.3335 11.6699 15.3335 11.9992C15.3335 13.4719 14.1396 14.6658 12.6668 14.6658C11.4247 14.6658 10.3809 13.8166 10.0845 12.667L7.24935 12.667C6.95315 13.8169 5.90921 14.6665 4.66683 14.6665C3.37025 14.6665 2.2898 13.7412 2.04985 12.5148C1.62388 12.2925 1.3335 11.8468 1.3335 11.3332V7.99984H7.3335C7.3335 8.34173 7.59086 8.62351 7.92242 8.66202L8.00016 8.6665H9.3335C9.67539 8.6665 9.95717 8.40914 9.99568 8.07758L10.0002 7.99984V1.99984H8.00016V0.666504H10.6668ZM4.66683 10.6665C3.93045 10.6665 3.3335 11.2635 3.3335 11.9998C3.3335 12.7362 3.93045 13.3332 4.66683 13.3332C5.40321 13.3332 6.00016 12.7362 6.00016 11.9998C6.00016 11.2635 5.40321 10.6665 4.66683 10.6665ZM12.6668 10.6665C11.9305 10.6665 11.3335 11.2635 11.3335 11.9998C11.3335 12.7362 11.9305 13.3332 12.6668 13.3332C13.4032 13.3332 14.0002 12.7362 14.0002 11.9998C14.0002 11.2635 13.4032 10.6665 12.6668 10.6665ZM6.66683 1.99984C7.03502 1.99984 7.3335 2.29831 7.3335 2.6665V7.33317H1.3335V2.6665C1.3335 2.29831 1.63197 1.99984 2.00016 1.99984H6.66683ZM13.3335 3.33317H11.3335V4.6665H13.3335V3.33317ZM6.00016 3.33317H2.66683V3.99984H6.00016V3.33317Z" />
</g>
</g>
</g>
<defs>
<clipPath id="clip0_810_4949">
<rect width="16" height="16" />
</clipPath>
<clipPath id="clip1_810_4949">
<rect width="16" height="16" />
</clipPath>
<clipPath id="clip2_810_4949">
<rect width="16" height="16" />
</clipPath>
</defs>
</svg>
