<svg width="20" height="17" viewBox="0 0 20 17" fill="none" xmlns="http://www.w3.org/2000/svg">
<path d="M4.99992 14.8333H14.9999V6.63084L9.99992 2.08584L4.99992 6.63084V14.8333ZM15.8333 16.5H4.16659C3.94557 16.5 3.73361 16.4122 3.57733 16.2559C3.42105 16.0996 3.33325 15.8877 3.33325 15.6667V8.16667H0.833252L9.43909 0.343338C9.59251 0.203736 9.79249 0.126373 9.99992 0.126373C10.2074 0.126373 10.4073 0.203736 10.5608 0.343338L19.1666 8.16667H16.6666V15.6667C16.6666 15.8877 16.5788 16.0996 16.4225 16.2559C16.2662 16.4122 16.0543 16.5 15.8333 16.5ZM6.24992 9.83334H7.91659C7.91659 10.3859 8.13608 10.9158 8.52678 11.3065C8.91748 11.6972 9.44738 11.9167 9.99992 11.9167C10.5525 11.9167 11.0824 11.6972 11.4731 11.3065C11.8638 10.9158 12.0833 10.3859 12.0833 9.83334H13.7499C13.7499 10.8279 13.3548 11.7817 12.6516 12.485C11.9483 13.1882 10.9945 13.5833 9.99992 13.5833C9.00536 13.5833 8.05153 13.1882 7.34827 12.485C6.64501 11.7817 6.24992 10.8279 6.24992 9.83334Z" fill="black"/>
</svg>
