<svg viewBox="0 0 20 20" xmlns="http://www.w3.org/2000/svg">
<g clip-path="url(#clip0_437_2384)">
<path d="M4.99992 15.8333H14.9999V7.63084L9.99992 3.08584L4.99992 7.63084V15.8333ZM15.8333 17.5H4.16659C3.94557 17.5 3.73361 17.4122 3.57733 17.2559C3.42105 17.0996 3.33325 16.8877 3.33325 16.6667V9.16667H0.833252L9.43909 1.34334C9.59251 1.20374 9.79249 1.12637 9.99992 1.12637C10.2074 1.12637 10.4073 1.20374 10.5608 1.34334L19.1666 9.16667H16.6666V16.6667C16.6666 16.8877 16.5788 17.0996 16.4225 17.2559C16.2662 17.4122 16.0543 17.5 15.8333 17.5ZM6.24992 10.8333H7.91659C7.91659 11.3859 8.13608 11.9158 8.52678 12.3065C8.91748 12.6972 9.44738 12.9167 9.99992 12.9167C10.5525 12.9167 11.0824 12.6972 11.4731 12.3065C11.8638 11.9158 12.0833 11.3859 12.0833 10.8333H13.7499C13.7499 11.8279 13.3548 12.7817 12.6516 13.485C11.9483 14.1882 10.9945 14.5833 9.99992 14.5833C9.00536 14.5833 8.05153 14.1882 7.34827 13.485C6.64501 12.7817 6.24992 11.8279 6.24992 10.8333Z" />
</g>
<defs>
<clipPath id="clip0_437_2384">
<rect width="20" height="20" />
</clipPath>
</defs>
</svg>
