<svg width="26" height="30" viewBox="0 0 26 30" fill="none" xmlns="http://www.w3.org/2000/svg">
<path d="M20 26H4" stroke="black" stroke-width="1.5"/>
<path d="M12 22L12 6" stroke="black" stroke-width="1.5"/>
<rect x="1.06066" y="15.4863" width="14.7443" height="17.9727" rx="7.37213" transform="rotate(-45 1.06066 15.4863)" stroke="black" stroke-width="1.5"/>
<rect x="2" y="4" width="9" height="12" fill="white"/>
<path d="M10.8969 9.33545L9.0329 5.8379C8.58916 5.00528 9.19254 4 10.136 4L13.864 4C14.8075 4 15.4108 5.00528 14.9671 5.8379L13.1031 9.33545C12.6326 10.2183 11.3674 10.2183 10.8969 9.33545Z" fill="white" stroke="black" stroke-width="1.5"/>
<path d="M6 22C6 18.6863 8.68629 16 12 16V16C15.3137 16 18 18.6863 18 22V26H6V22Z" fill="white" stroke="black" stroke-width="1.5"/>
<rect x="3" y="8" width="2" height="8" rx="1" stroke="black" stroke-width="1.5"/>
</svg>
