<svg width="24" height="24" viewBox="0 0 24 24" xmlns="http://www.w3.org/2000/svg">
<g clip-path="url(#clip0_437_14215)">
<path d="M20 23H4"  stroke-width="1.5"/>
<path d="M12 19L12 3"  stroke-width="1.5"/>
<rect x="1.06066" y="12.4863" width="14.7443" height="17.9727" rx="7.37213" transform="rotate(-45 1.06066 12.4863)"  stroke-width="1.5"/>
<rect x="2" y="1" width="9" height="12" />
<path d="M13.1031 6.33545C12.6326 7.21825 11.3674 7.21825 10.8969 6.33545L9.0329 2.8379C8.58916 2.00528 9.19254 1 10.136 1L13.864 1C14.8075 1 15.4108 2.00528 14.9671 2.8379L13.1031 6.33545Z" stroke-width="1.5"/>
<path d="M6 19C6 15.6863 8.68629 13 12 13C15.3137 13 18 15.6863 18 19V23H6V19Z"  stroke-width="1.5"/>
<rect x="3" y="5" width="2" height="8" rx="1"  stroke-width="1.5"/>
</g>
<defs>
<clipPath id="clip0_437_14215">
<rect width="24" height="24" />
</clipPath>
</defs>
</svg>
