<svg width="16" height="16" viewBox="0 0 16 16" xmlns="http://www.w3.org/2000/svg">
<g clip-path="url(#clip0_437_12285)">
<path d="M14.6665 13.3335V14.6668H1.33317V13.3335H1.99984V8.82816C1.58942 8.55422 1.25298 8.18319 1.02038 7.74801C0.787788 7.31282 0.666232 6.82694 0.666504 6.3335C0.666504 5.78216 0.815838 5.25083 1.0885 4.79816L2.8965 1.66683C2.95501 1.56549 3.03917 1.48133 3.14051 1.42282C3.24186 1.3643 3.35682 1.3335 3.47384 1.3335H12.5265C12.6435 1.3335 12.7585 1.3643 12.8598 1.42282C12.9612 1.48133 13.0453 1.56549 13.1038 1.66683L14.9052 4.78816C15.3029 5.44874 15.4307 6.23719 15.2621 6.98959C15.0935 7.74199 14.6414 8.40048 13.9998 8.82816V13.3335H14.6665ZM3.85917 2.66683L2.23717 5.4755C2.07956 5.86493 2.07482 6.29951 2.22392 6.69228C2.37303 7.08505 2.66496 7.40702 3.04129 7.59376C3.41763 7.78049 3.8506 7.81822 4.25356 7.69937C4.65652 7.58053 4.99973 7.3139 5.2145 6.95283C5.43784 6.39483 6.22784 6.39483 6.45184 6.95283C6.57537 7.26244 6.7889 7.5279 7.06485 7.7149C7.34081 7.9019 7.66649 8.00186 7.99984 8.00186C8.33318 8.00186 8.65887 7.9019 8.93482 7.7149C9.21077 7.5279 9.42431 7.26244 9.54784 6.95283C9.77117 6.39483 10.5612 6.39483 10.7852 6.95283C10.8717 7.1658 11.0013 7.35856 11.1659 7.51901C11.3305 7.67946 11.5266 7.80413 11.7417 7.88518C11.9568 7.96622 12.1863 8.00189 12.4159 7.98995C12.6454 7.97801 12.87 7.91871 13.0756 7.81578C13.2811 7.71285 13.4631 7.56852 13.6102 7.39185C13.7573 7.21519 13.8662 7.01001 13.9302 6.78921C13.9941 6.56842 14.0117 6.33678 13.9818 6.10886C13.9519 5.88095 13.8752 5.66167 13.7565 5.46483L12.1398 2.66683H3.85984H3.85917Z" />
</g>
<defs>
<clipPath id="clip0_437_12285">
<rect width="16" height="16" />
</clipPath>
</defs>
</svg>
