<svg width="16" height="14" viewBox="0 0 16 14" fill="none" xmlns="http://www.w3.org/2000/svg">
<path d="M14.6665 12.3335V13.6668H1.33317V12.3335H1.99984V7.82816C1.58942 7.55422 1.25298 7.18319 1.02038 6.74801C0.787788 6.31282 0.666232 5.82694 0.666504 5.3335C0.666504 4.78216 0.815838 4.25083 1.0885 3.79816L2.8965 0.666829C2.95501 0.565486 3.03917 0.481329 3.14051 0.422817C3.24186 0.364305 3.35682 0.333499 3.47384 0.333496H12.5265C12.6435 0.333499 12.7585 0.364305 12.8598 0.422817C12.9612 0.481329 13.0453 0.565486 13.1038 0.666829L14.9052 3.78816C15.3029 4.44874 15.4307 5.23719 15.2621 5.98959C15.0935 6.74199 14.6414 7.40048 13.9998 7.82816V12.3335H14.6665ZM3.85917 1.66683L2.23717 4.4755C2.07956 4.86493 2.07482 5.29951 2.22392 5.69228C2.37303 6.08505 2.66496 6.40702 3.04129 6.59376C3.41763 6.78049 3.8506 6.81822 4.25356 6.69937C4.65652 6.58053 4.99973 6.3139 5.2145 5.95283C5.43784 5.39483 6.22784 5.39483 6.45184 5.95283C6.57537 6.26244 6.7889 6.5279 7.06485 6.7149C7.34081 6.9019 7.66649 7.00186 7.99984 7.00186C8.33318 7.00186 8.65887 6.9019 8.93482 6.7149C9.21077 6.5279 9.42431 6.26244 9.54784 5.95283C9.77117 5.39483 10.5612 5.39483 10.7852 5.95283C10.8717 6.1658 11.0013 6.35856 11.1659 6.51901C11.3305 6.67946 11.5266 6.80413 11.7417 6.88518C11.9568 6.96622 12.1863 7.00189 12.4159 6.98995C12.6454 6.97801 12.87 6.91871 13.0756 6.81578C13.2811 6.71285 13.4631 6.56852 13.6102 6.39185C13.7573 6.21519 13.8662 6.01001 13.9302 5.78921C13.9941 5.56842 14.0117 5.33678 13.9818 5.10886C13.9519 4.88095 13.8752 4.66167 13.7565 4.46483L12.1398 1.66683H3.85984H3.85917Z" fill="black"/>
</svg>
