<svg width="24" height="24" viewBox="0 0 24 24" xmlns="http://www.w3.org/2000/svg">
<g clip-path="url(#clip0_437_14184)">
<path d="M5.0145 11.6425C4.54092 11.3584 3.92666 11.5119 3.64251 11.9855C3.35836 12.4591 3.51192 13.0733 3.9855 13.3575L5.0145 11.6425ZM20.0145 13.3575C20.4881 13.0733 20.6416 12.4591 20.3575 11.9855C20.0733 11.5119 19.4591 11.3584 18.9855 11.6425L20.0145 13.3575ZM11.4855 16.6913L10.971 17.5488L11.4855 16.6913ZM12.5145 16.6913L13.029 17.5488L12.5145 16.6913ZM3.9855 13.3575L10.971 17.5488L12 15.8338L5.0145 11.6425L3.9855 13.3575ZM13.029 17.5488L20.0145 13.3575L18.9855 11.6425L12 15.8338L13.029 17.5488ZM10.971 17.5488C11.6044 17.9288 12.3956 17.9288 13.029 17.5488L12 15.8338L12 15.8338L10.971 17.5488Z" />
<path d="M5.0145 16.1425C4.54092 15.8584 3.92666 16.0119 3.64251 16.4855C3.35836 16.9591 3.51192 17.5733 3.9855 17.8575L5.0145 16.1425ZM20.0145 17.8575C20.4881 17.5733 20.6416 16.9591 20.3575 16.4855C20.0733 16.0119 19.4591 15.8584 18.9855 16.1425L20.0145 17.8575ZM11.4855 21.1913L10.971 22.0488L11.4855 21.1913ZM12.5145 21.1913L13.029 22.0488L12.5145 21.1913ZM3.9855 17.8575L10.971 22.0488L12 20.3338L5.0145 16.1425L3.9855 17.8575ZM13.029 22.0488L20.0145 17.8575L18.9855 16.1425L12 20.3338L13.029 22.0488ZM10.971 22.0488C11.6044 22.4288 12.3956 22.4288 13.029 22.0488L12 20.3338L12 20.3338L10.971 22.0488Z" />
<path d="M4.97412 8.39649C4.31422 8.01107 4.31299 7.05789 4.9719 6.67077L11.5639 2.79796C11.8769 2.61404 12.2651 2.61425 12.5779 2.79851L19.0413 6.6053C19.697 6.99149 19.6982 7.93945 19.0435 8.32731L12.5061 12.2002C12.1937 12.3852 11.8056 12.3864 11.4921 12.2033L4.97412 8.39649Z" stroke-width="2"/>
</g>
<defs>
<clipPath id="clip0_437_14184">
<rect width="24" height="24" />
</clipPath>
</defs>
</svg>
