<svg width="18" height="26" viewBox="0 0 18 26" fill="none" xmlns="http://www.w3.org/2000/svg">
<path d="M1.5 13.5L8.48549 17.6913C8.80218 17.8813 9.1978 17.8813 9.51448 17.6913L16.5 13.5" stroke="black" stroke-width="2" stroke-linecap="round"/>
<path d="M1.5 18L8.48549 22.1913C8.80218 22.3813 9.1978 22.3813 9.51448 22.1913L16.5 18" stroke="black" stroke-width="2" stroke-linecap="round"/>
<path d="M1.97412 9.39661C1.31422 9.01119 1.31299 8.05801 1.9719 7.67089L8.56387 3.79808C8.87692 3.61416 9.26507 3.61437 9.57792 3.79863L16.0413 7.60542C16.697 7.99161 16.6982 8.93957 16.0435 9.32743L9.50608 13.2003C9.1937 13.3853 8.80557 13.3866 8.49205 13.2034L1.97412 9.39661Z" fill="white" stroke="black" stroke-width="2"/>
</svg>
