<svg width="16" height="19" viewBox="0 0 16 19" fill="none" xmlns="http://www.w3.org/2000/svg">
<path d="M12.1667 1.66667H14.6667C14.8877 1.66667 15.0996 1.75446 15.2559 1.91074C15.4122 2.06702 15.5 2.27899 15.5 2.5V17.5C15.5 17.721 15.4122 17.933 15.2559 18.0893C15.0996 18.2455 14.8877 18.3333 14.6667 18.3333H1.33333C1.11232 18.3333 0.900358 18.2455 0.744078 18.0893C0.587797 17.933 0.5 17.721 0.5 17.5V2.5C0.5 2.27899 0.587797 2.06702 0.744078 1.91074C0.900358 1.75446 1.11232 1.66667 1.33333 1.66667H3.83333V0H5.5V1.66667H10.5V0H12.1667V1.66667ZM12.1667 3.33333V5H10.5V3.33333H5.5V5H3.83333V3.33333H2.16667V16.6667H13.8333V3.33333H12.1667ZM3.83333 6.66667H12.1667V8.33333H3.83333V6.66667ZM3.83333 10H12.1667V11.6667H3.83333V10Z" fill="#E68A00"/>
</svg>
