<svg id="Layer_1" height="512" viewBox="0 0 101 101" width="512" xmlns="http://www.w3.org/2000/svg"><path d="m76.4 28.6c.9-.1 1.7-.8 1.9-1.7.3-.9 0-1.9-.8-2.5-6.1-5.1-13.9-8-21.9-8-18.8 0-34.1 15.3-34.1 34.1s15.3 34.1 34.1 34.1c8.4 0 16.6-3.1 22.9-8.9.7-.6 1-1.6.7-2.5s-1.1-1.5-2-1.7c-10.9-1.2-19.1-10.5-19.1-21.5 0-10.7 7.7-19.7 18.3-21.4zm-23.1 21.4c0 11.6 7.5 21.6 18.1 25.1-4.7 3-10.1 4.6-15.7 4.6-16.1 0-29.3-13.1-29.3-29.3s13.1-29.3 29.3-29.3c5.2 0 10.3 1.4 14.8 4-10.2 3.9-17.2 13.6-17.2 24.9z"/></svg>