<svg viewBox="0 0 18 18" xmlns="http://www.w3.org/2000/svg">
<path d="M8.48268 0.682495C7.86863 1.25468 7.37611 1.94468 7.03451 2.71134C6.69291 3.47801 6.50923 4.30562 6.49442 5.14481C6.47961 5.984 6.63399 6.81757 6.94833 7.59581C7.26267 8.37404 7.73054 9.08099 8.32403 9.67448C8.91752 10.268 9.62447 10.7358 10.4027 11.0502C11.1809 11.3645 12.0145 11.5189 12.8537 11.5041C13.6929 11.4893 14.5205 11.3056 15.2872 10.964C16.0538 10.6224 16.7438 10.1299 17.316 9.51583C17.051 13.8783 13.4293 17.3333 9.00018 17.3333C4.39685 17.3333 0.666016 13.6025 0.666016 9C0.666016 4.57083 4.12102 0.949162 8.48268 0.682495Z" />
</svg>
