<svg width="20" height="22" viewBox="0 0 20 22" fill="none" xmlns="http://www.w3.org/2000/svg">
<path d="M18.083 9.50007L19.285 10.2211C19.3592 10.2655 19.4205 10.3283 19.4632 10.4035C19.5058 10.4787 19.5282 10.5636 19.5282 10.6501C19.5282 10.7365 19.5058 10.8214 19.4632 10.8966C19.4205 10.9718 19.3592 11.0347 19.285 11.0791L10 16.6501L0.715007 11.0791C0.640854 11.0347 0.579473 10.9718 0.536854 10.8966C0.494235 10.8214 0.471832 10.7365 0.471832 10.6501C0.471832 10.5636 0.494235 10.4787 0.536854 10.4035C0.579473 10.3283 0.640854 10.2655 0.715007 10.2211L1.91701 9.50007L10 14.3501L18.083 9.50007ZM18.083 14.2001L19.285 14.9211C19.3592 14.9655 19.4205 15.0283 19.4632 15.1035C19.5058 15.1787 19.5282 15.2636 19.5282 15.3501C19.5282 15.4365 19.5058 15.5214 19.4632 15.5966C19.4205 15.6718 19.3592 15.7347 19.285 15.7791L10.515 21.0411C10.3595 21.1345 10.1815 21.1839 10 21.1839C9.81856 21.1839 9.64054 21.1345 9.48501 21.0411L0.715007 15.7791C0.640854 15.7347 0.579473 15.6718 0.536854 15.5966C0.494235 15.5214 0.471832 15.4365 0.471832 15.3501C0.471832 15.2636 0.494235 15.1787 0.536854 15.1035C0.579473 15.0283 0.640854 14.9655 0.715007 14.9211L1.91701 14.2001L10 19.0501L18.083 14.2001ZM10.514 0.30907L19.285 5.57107C19.3592 5.61546 19.4205 5.67832 19.4632 5.75351C19.5058 5.82869 19.5282 5.91364 19.5282 6.00007C19.5282 6.0865 19.5058 6.17145 19.4632 6.24663C19.4205 6.32182 19.3592 6.38468 19.285 6.42907L10 12.0001L0.715007 6.42907C0.640854 6.38468 0.579473 6.32182 0.536854 6.24663C0.494235 6.17145 0.471832 6.0865 0.471832 6.00007C0.471832 5.91364 0.494235 5.82869 0.536854 5.75351C0.579473 5.67832 0.640854 5.61546 0.715007 5.57107L9.48501 0.30907C9.64054 0.215626 9.81856 0.16626 10 0.16626C10.1815 0.16626 10.3595 0.215626 10.515 0.30907H10.514Z" fill="black"/>
</svg>
