<svg width="14" height="19" viewBox="0 0 14 19" fill="none" xmlns="http://www.w3.org/2000/svg">
<path d="M0.833252 17.8333V16.6666C0.833252 15.6941 1.21956 14.7615 1.90719 14.0739C2.59483 13.3862 3.52746 12.9999 4.49992 12.9999H9.49992C10.4724 12.9999 11.405 13.3862 12.0926 14.0739C12.7803 14.7615 13.1666 15.6941 13.1666 16.6666V17.8333H0.833252ZM6.99992 10.3333C6.40897 10.3333 5.82381 10.2169 5.27784 9.99071C4.73188 9.76456 4.2358 9.4331 3.81794 9.01523C3.40007 8.59737 3.06861 8.10129 2.84246 7.55533C2.61631 7.00936 2.49992 6.4242 2.49992 5.83325C2.49992 5.2423 2.61631 4.65714 2.84246 4.11118C3.06861 3.56521 3.40007 3.06913 3.81794 2.65127C4.2358 2.23341 4.73188 1.90194 5.27784 1.67579C5.82381 1.44965 6.40897 1.33325 6.99992 1.33325C8.19339 1.33325 9.33799 1.80736 10.1819 2.65127C11.0258 3.49518 11.4999 4.63978 11.4999 5.83325C11.4999 7.02673 11.0258 8.17132 10.1819 9.01523C9.33799 9.85915 8.19339 10.3333 6.99992 10.3333Z" fill="black" stroke="black"/>
</svg>
