<svg viewBox="0 0 24 24" fill="none" xmlns="http://www.w3.org/2000/svg">
<g clip-path="url(#clip0_16_9)">
<rect x="5" y="17" width="4" height="5" rx="1" stroke-width="2"/>
<path d="M9.60797 7.78036L7.04623 11.3448L2.60003 12.5362L3.6353 16.3999L8.08151 15.2085L12.0823 17.0146L9.60797 7.78036ZM7.90948 17.3252L3.18702 18.5906C2.93084 18.6592 2.65788 18.6233 2.4282 18.4907C2.19851 18.3581 2.03091 18.1396 1.96227 17.8835L0.409356 12.0879C0.340713 11.8317 0.376648 11.5588 0.509257 11.3291C0.641865 11.0994 0.860283 10.9318 1.11646 10.8632L5.83892 9.59779L9.83133 4.04321C9.88654 3.96625 9.96248 3.90655 10.0503 3.87106C10.1381 3.83558 10.2342 3.82577 10.3274 3.84279C10.4206 3.8598 10.507 3.90293 10.5766 3.96715C10.6463 4.03138 10.6962 4.11406 10.7207 4.20557L14.8333 19.5541C14.8579 19.6456 14.856 19.7422 14.8278 19.8326C14.7996 19.923 14.7463 20.0036 14.6741 20.0649C14.6019 20.1263 14.5138 20.1658 14.42 20.179C14.3262 20.1922 14.2306 20.1784 14.1443 20.1394L7.90948 17.3252ZM22.0359 17.8199L20.3016 16.8186C20.999 15.7585 21.4637 14.5626 21.6651 13.3098C21.8666 12.057 21.8002 10.7757 21.4703 9.55048C21.1263 8.2617 20.4995 7.06573 19.6355 6.04944C18.7715 5.03314 17.692 4.22204 16.4754 3.67505L17.4795 1.93591C18.9235 2.61694 20.2015 3.60477 21.2244 4.8305C22.2473 6.05623 22.9905 7.49035 23.4022 9.03284C24.2363 12.146 23.6479 15.305 22.0359 17.8199ZM17.6966 15.3146L15.955 14.3091C16.3273 13.8229 16.5828 13.2575 16.7017 12.6568C16.8206 12.056 16.7997 11.436 16.6407 10.8446C16.2706 9.4633 15.2213 8.44518 13.9468 8.05473L14.9643 6.29232C15.8402 6.63449 16.6232 7.17801 17.25 7.87892C17.8769 8.57983 18.3299 9.41845 18.5725 10.3269C19.0493 12.1062 18.6741 13.9128 17.6966 15.3146Z" />
</g>
<defs>
<clipPath id="clip0_16_9">
<rect width="24" height="24" fill="white"/>
</clipPath>
</defs>
</svg>
