<svg width="24" height="24" viewBox="0 0 24 24" xmlns="http://www.w3.org/2000/svg">
<g clip-path="url(#clip0_1021_8819)">
<path d="M21 8.00001C21.5304 8.00001 22.0391 8.21072 22.4142 8.58579C22.7893 8.96087 23 9.46957 23 10V14C23 14.5304 22.7893 15.0391 22.4142 15.4142C22.0391 15.7893 21.5304 16 21 16H19.938C19.6942 17.9333 18.7533 19.7112 17.2917 21C15.8302 22.2888 13.9486 23 12 23V21C13.5913 21 15.1174 20.3679 16.2426 19.2426C17.3679 18.1174 18 16.5913 18 15V9.00001C18 7.40871 17.3679 5.88259 16.2426 4.75737C15.1174 3.63215 13.5913 3.00001 12 3.00001C10.4087 3.00001 8.88258 3.63215 7.75736 4.75737C6.63214 5.88259 6 7.40871 6 9.00001V16H3C2.46957 16 1.96086 15.7893 1.58579 15.4142C1.21071 15.0391 1 14.5304 1 14V10C1 9.46957 1.21071 8.96087 1.58579 8.58579C1.96086 8.21072 2.46957 8.00001 3 8.00001H4.062C4.30603 6.0669 5.24708 4.28928 6.70857 3.00068C8.17007 1.71209 10.0516 1.00108 12 1.00108C13.9484 1.00108 15.8299 1.71209 17.2914 3.00068C18.7529 4.28928 19.694 6.0669 19.938 8.00001H21ZM7.76 15.785L8.82 14.089C9.77308 14.686 10.8754 15.0018 12 15C13.1246 15.0018 14.2269 14.686 15.18 14.089L16.24 15.785C14.9693 16.5812 13.4995 17.0023 12 17C10.5005 17.0023 9.03074 16.5812 7.76 15.785Z" />
</g>
<defs>
<clipPath id="clip0_1021_8819">
<rect width="24" height="24"/>
</clipPath>
</defs>
</svg>

