<svg width="22" height="22" viewBox="0 0 22 22" fill="none" xmlns="http://www.w3.org/2000/svg">
<path d="M20 6.99999C20.5304 6.99999 21.0391 7.21071 21.4142 7.58578C21.7893 7.96085 22 8.46956 22 8.99999V13C22 13.5304 21.7893 14.0391 21.4142 14.4142C21.0391 14.7893 20.5304 15 20 15H18.938C18.6942 16.9333 17.7533 18.7112 16.2917 20C14.8302 21.2888 12.9486 22 11 22V20C12.5913 20 14.1174 19.3679 15.2426 18.2426C16.3679 17.1174 17 15.5913 17 14V7.99999C17 6.40869 16.3679 4.88257 15.2426 3.75735C14.1174 2.63213 12.5913 1.99999 11 1.99999C9.4087 1.99999 7.88258 2.63213 6.75736 3.75735C5.63214 4.88257 5 6.40869 5 7.99999V15H2C1.46957 15 0.960859 14.7893 0.585786 14.4142C0.210714 14.0391 0 13.5304 0 13V8.99999C0 8.46956 0.210714 7.96085 0.585786 7.58578C0.960859 7.21071 1.46957 6.99999 2 6.99999H3.062C3.30603 5.06689 4.24708 3.28926 5.70857 2.00067C7.17007 0.712071 9.05155 0.00106812 11 0.00106812C12.9484 0.00106812 14.8299 0.712071 16.2914 2.00067C17.7529 3.28926 18.694 5.06689 18.938 6.99999H20ZM6.76 14.785L7.82 13.089C8.77308 13.686 9.87537 14.0018 11 14C12.1246 14.0018 13.2269 13.686 14.18 13.089L15.24 14.785C13.9693 15.5811 12.4995 16.0023 11 16C9.50046 16.0023 8.03074 15.5811 6.76 14.785Z" fill="#92929E"/>
</svg>
