<svg width="17" height="23" viewBox="0 0 17 23" fill="none" xmlns="http://www.w3.org/2000/svg">
<path d="M11.4506 11.5L11.0344 11.2229L10.8499 11.5L11.0344 11.7771L11.4506 11.5ZM15.7721 19.1795L15.3257 19.4047L15.3257 19.4047L15.7721 19.1795ZM1.21199 19.1795L1.65842 19.4047L1.65842 19.4047L1.21199 19.1795ZM5.53351 11.5L5.94971 11.7771L6.13417 11.5L5.94971 11.2229L5.53351 11.5ZM1.212 3.82049L1.65843 3.59534L1.65843 3.59534L1.212 3.82049ZM15.7721 3.8205L15.3257 3.59534L15.3257 3.59534L15.7721 3.8205ZM11.0344 11.7771C12.5432 14.0435 14.1934 17.1596 15.3257 19.4047L16.2186 18.9544C15.084 16.7047 13.4112 13.5428 11.8668 11.2229L11.0344 11.7771ZM15.3257 19.4047C15.812 20.369 15.1114 21.5 14.0076 21.5V22.5C15.8324 22.5 17.051 20.605 16.2186 18.9544L15.3257 19.4047ZM14.0076 21.5H2.97652V22.5H14.0076V21.5ZM2.97652 21.5C1.87272 21.5 1.17209 20.369 1.65842 19.4047L0.765549 18.9544C-0.0669016 20.605 1.15168 22.5 2.97652 22.5V21.5ZM1.65842 19.4047C2.79067 17.1596 4.44087 14.0435 5.94971 11.7771L5.1173 11.2229C3.5729 13.5428 1.90015 16.7047 0.765549 18.9544L1.65842 19.4047ZM5.94971 11.2229C4.44088 8.95646 2.79068 5.84036 1.65843 3.59534L0.765561 4.04565C1.90016 6.29534 3.57291 9.45721 5.1173 11.7771L5.94971 11.2229ZM1.65843 3.59534C1.17209 2.63102 1.87272 1.5 2.97653 1.5V0.5C1.15168 0.5 -0.0668943 2.39506 0.765561 4.04565L1.65843 3.59534ZM2.97653 1.5H14.0076V0.5H2.97653V1.5ZM14.0076 1.5C15.1114 1.5 15.812 2.63103 15.3257 3.59534L16.2185 4.04565C17.051 2.39506 15.8324 0.5 14.0076 0.5V1.5ZM15.3257 3.59534C14.1934 5.84036 12.5432 8.95646 11.0344 11.2229L11.8668 11.7771C13.4112 9.45721 15.0839 6.29534 16.2185 4.04565L15.3257 3.59534Z" fill="black"/>
<path d="M7.8307 14.3085C8.22433 13.6962 9.11942 13.6962 9.51305 14.3085L12.1814 18.4592C12.6092 19.1248 12.1314 20 11.3402 20H6.00354C5.21237 20 4.73453 19.1248 5.16236 18.4592L7.8307 14.3085Z" fill="black"/>
</svg>
