<svg width="14" height="14" viewBox="0 0 14 14" xmlns="http://www.w3.org/2000/svg">
<g clip-path="url(#clip0_810_81)">
<path d="M12.4444 14H1.55556C1.37506 14 1.20196 13.9263 1.07433 13.795C0.946701 13.6637 0.875 13.4857 0.875 13.3V0.7C0.875 0.514348 0.946701 0.336301 1.07433 0.205025C1.20196 0.0737498 1.37506 0 1.55556 0H12.4444C12.6249 0 12.798 0.0737498 12.9257 0.205025C13.0533 0.336301 13.125 0.514348 13.125 0.7V13.3C13.125 13.4857 13.0533 13.6637 12.9257 13.795C12.798 13.9263 12.6249 14 12.4444 14ZM4.95833 2.8H3.59722V4.2C3.59722 5.12826 3.95573 6.0185 4.59387 6.67487C5.23202 7.33125 6.09753 7.7 7 7.7C7.90247 7.7 8.76798 7.33125 9.40613 6.67487C10.0443 6.0185 10.4028 5.12826 10.4028 4.2V2.8H9.04167V4.2C9.04167 4.75695 8.82656 5.2911 8.44368 5.68492C8.06079 6.07875 7.54148 6.3 7 6.3C6.45852 6.3 5.93921 6.07875 5.55632 5.68492C5.17344 5.2911 4.95833 4.75695 4.95833 4.2V2.8Z" />
</g>
<defs>
<clipPath id="clip0_810_81">
<rect width="14" height="14" />
</clipPath>
</defs>
</svg>
