<svg width="24" height="24" viewBox="0 0 24 24" xmlns="http://www.w3.org/2000/svg">
<path d="M9 10C10.6569 10 12 8.65685 12 7C12 5.34315 10.6569 4 9 4C7.34315 4 6 5.34315 6 7C6 8.65685 7.34315 10 9 10Z"  stroke-width="2" stroke-linecap="round" stroke-linejoin="round"/>
<path d="M14 10C15.6569 10 17 8.65685 17 7C17 5.34315 15.6569 4 14 4" stroke-width="2" stroke-linecap="round" stroke-linejoin="round"/>
<path d="M11 13H7C4.79086 13 3 14.7909 3 17C3 18.6569 4.34315 20 6 20H12C13.6569 20 15 18.6569 15 17C15 14.7909 13.2091 13 11 13Z"  stroke-width="2" stroke-linecap="round" stroke-linejoin="round"/>
<path d="M17 13C19.2091 13 21 14.7909 21 17C21 18.6569 19.6569 20 18 20" stroke-width="2" stroke-linecap="round" stroke-linejoin="round"/>
</svg>
