<?xml version="1.0" standalone="no"?>
<!DOCTYPE svg PUBLIC "-//W3C//DTD SVG 20010904//EN"
 "http://www.w3.org/TR/2001/REC-SVG-20010904/DTD/svg10.dtd">
<svg version="1.0" xmlns="http://www.w3.org/2000/svg"
 width="554.000000pt" height="554.000000pt" viewBox="0 0 554.000000 554.000000"
 preserveAspectRatio="xMidYMid meet">
<metadata>
Created by potrace 1.14, written by Peter Selinger 2001-2017
</metadata>
<g transform="translate(0.000000,554.000000) scale(0.100000,-0.100000)"
fill="#000000" stroke="none">
<path d="M3038 5535 c-2 -2 -73 -6 -158 -9 -85 -4 -180 -9 -210 -11 -30 -2
-93 -7 -140 -10 -282 -17 -371 -41 -463 -125 -83 -76 -144 -225 -163 -395 -3
-33 -8 -68 -10 -78 -2 -10 -6 -58 -10 -105 -4 -48 -8 -98 -9 -112 -2 -14 -3
-39 -4 -57 -1 -28 -7 -34 -73 -67 -172 -88 -330 -206 -494 -370 -149 -150
-204 -220 -341 -441 -28 -46 -108 -217 -140 -299 -35 -93 -87 -278 -98 -356
-4 -25 -9 -53 -10 -62 -13 -67 -20 -176 -20 -313 0 -199 5 -249 49 -470 49
-247 195 -555 379 -800 60 -80 256 -282 332 -343 167 -133 359 -248 534 -318
l36 -14 -3 -104 c-3 -95 -1 -106 16 -115 16 -9 26 -5 54 23 19 18 49 56 67 85
18 28 36 51 40 51 5 0 28 -6 52 -13 24 -8 48 -13 53 -13 12 1 21 -34 30 -108
8 -73 50 -285 71 -351 8 -27 15 -55 15 -62 0 -7 -24 -30 -53 -52 -30 -21 -61
-54 -70 -73 -16 -32 -15 -33 4 -36 29 -5 182 44 208 65 13 12 26 42 35 83 57
267 87 407 92 433 3 17 9 36 15 43 9 11 88 8 100 -4 3 -4 36 -95 73 -202 117
-341 118 -343 159 -362 37 -18 177 -37 177 -24 0 18 -32 66 -63 93 -47 41 -58
63 -41 80 30 30 59 168 80 383 4 36 8 66 9 68 2 2 28 9 58 16 49 12 57 11 80
-6 37 -27 69 -20 87 19 13 27 27 36 90 58 386 137 747 401 979 715 22 30 44
60 48 65 47 60 150 244 205 370 48 109 96 261 124 390 45 209 52 570 15 775
-42 231 -85 364 -186 575 -46 95 -160 282 -208 341 -9 11 -32 39 -52 64 -88
108 -244 257 -356 342 -26 20 -36 34 -34 51 3 27 12 145 21 267 3 47 7 101 10
120 11 84 5 318 -10 388 -34 164 -119 252 -287 298 -54 15 -112 18 -376 20
-172 0 -314 0 -315 -1z m296 -3907 l16 -32 -25 24 c-26 24 -32 40 -16 40 5 0
17 -14 25 -32z"/>
</g>
</svg>
